# xmcd
#
# Track frame offsets: 
#        150
#        14381
#        29738
#        46579
#        61713
#        73219
#        88913
#        103558
#        120221
#        140710
#        154276
#        170759
#        186933
#        204228
#        218930
#        235737
#
# Disc length: 3374 seconds
#
# Revision: 1
# Processed by: cddbd v1.5.2PL0 Copyright (c) Steve Scherf et al.
# Submitted via: ExactAudioCopy v0.99pb5
#
DISCID=e20d2c10
DTITLE=Harmony James - Tailwind
DYEAR=2008
DGENRE=Country
TTITLE0=Come On Back To Me
TTITLE1=Tailwind
TTITLE2=Fly
TTITLE3=Drifter
TTITLE4=Painted Pony
TTITLE5=Precious Little
TTITLE6=Good Enough
TTITLE7=Send Down An Angel
TTITLE8=Somebody Stole My Horse
TTITLE9=Pretty
TTITLE10=The Only Good Thing
TTITLE11=Cold Cold Rage
TTITLE12=Some People Give (With Kevin Bennett)
TTITLE13=The Way That I Felt
TTITLE14=Home
TTITLE15=Call Of The Currawong (Live)
EXTD=
EXTT0=
EXTT1=
EXTT2=
EXTT3=
EXTT4=
EXTT5=
EXTT6=
EXTT7=
EXTT8=
EXTT9=
EXTT10=
EXTT11=
EXTT12=
EXTT13=
EXTT14=
EXTT15=
PLAYORDER=
